<?xml version="1.0" encoding="UTF-8"?>
<!DOCTYPE svg PUBLIC "-//W3C//DTD SVG 1.1//EN" "http://www.w3.org/Graphics/SVG/1.1/DTD/svg11.dtd">
<svg version="1.1" id="Layer_1" xmlns="http://www.w3.org/2000/svg" xmlns:xlink="http://www.w3.org/1999/xlink" x="0px" y="0px" viewBox="0 0 2651.73 724.61" enable-background="new 0 0 2651.73 724.61" xml:space="preserve">
<path d="M937.342,38.219c1.606-0.658,1.565-0.534,18.022-0.534c6.461,0.338,29.707,15.757,30.501,18.575  c1.007,0.631,7.417,4.981,7.828,6.193c4.299,11.371,6.774,23.401,7.545,35.525c5.504,1.929,11.199,3.338,16.986,4.091  c4.771,1.009,0.866-1.932,11.55,6.505c-0.047,1.606-0.043,3.216-0.043,4.827c151.093-0.072,302.189,0.022,453.281-0.047  c5.241-10.631,21.33-10.406,27.195-0.007c35.213,0.104,70.433-0.05,105.646,0.075c0.057-1-0.547-7.309,3.772-14.967  c2.123-3.299,0.865-2.502,21.73-2.539c3.295,0.086,6.623-0.212,9.908,0.204c1.026,0.717,1.825,1.693,2.471,2.768  c48.809,0.426,4.814-2.201,121.9,8.021c0.011,2.166-0.025,4.332,0.021,6.494c406.293-0.231,390.556,0.301,398.751-0.222  c-1.66-0.384-3.356,0.143-4.988-0.219c1.11-0.706,13.12-3.017,14.121-3.188c4.755-0.068,9.524-0.057,14.286,0.011  c1.18,0.903-1.716,0.327,60.629,0.527c8.491-51.047,5.676-41.792,10.707-48.319c3.274-4.395,13.383-8.648,22.662-7.104  c1.757,0.104,3.278,1.083,4.959,1.542c9.118-11.164,28.973-11.923,36.443-2.094c1.198,1.578,2.761,2.926,3.471,4.834  c0.574,1.542,1.843,2.926,1.66,4.669c-0.08,103.074-0.42,79.678,1.649,94.354c1.696,10.03,2.743,20.181,2.847,30.358  c1.13-0.007,2.273-0.007,3.435,0.011c-0.025,0.81-0.018,1.621,0,2.435c3.797-0.007,7.598,0.068,11.403-0.025  c2.394-2.158,3.548-4.104,12.984-3.191c1.728-0.037,4.67,1.967,6.128,3.711c0.649,0.839,1.696,1.187,2.539,1.814  c0.552,0.545,1.011,1.19,1.538,1.793c1.119-0.004,2.248-0.004,3.399-0.014c1.345-1.28,2.761-2.582,4.468-3.381  c6.159-6.5,9.416-4.627,18.743-4.966c1.277-1.409,3.209-1.743,4.952-2.295c2.668-0.742,5.426,0.24,8.115,0.265  c2.854-1.187,5.942-0.068,8.893,0.004c2.442-0.957,5.07-0.373,7.598-0.118c1.79,0.097,2.983,1.746,4.676,2.173  c8.861,0.391,26.112-4.45,30.444-4.307c2.743,0.136,5.139-1.789,7.91-1.571c6.178,0.215,12.429-0.459,18.546,0.703  c0.857,0.305,1.628,1.011,2.628,0.875c17.183-0.068,34.374,0.082,51.553-0.061c2.202-1.395,4.755-2.004,7.251-2.697  c1.395-0.355,2.858-0.183,4.31-0.204c22.234-0.086,29.23-2.369,37.992,15.286c5.01,13.668,5.021,23.495-2.768,40.186  c-1.703,3.899-9.113,10.823-12.633,11.389c-7.407,1.178,2.905,1.1-22.254,1.083c-3.087-0.032-9.165-0.06-11.622-1.994  c-1.453-1.232,1.813-0.895-50.757-0.907c-5.617-0.166-7.175,1.617-10.41,1.481c-10.58-0.009-15.565,0.339-20.084-1.398  c-18.84-2.612-15.582-3.928-32.624-4.439c-1.875-0.082-3.571,0.825-5.361,1.165c-2.445,0.445-4.848-0.585-7.254-0.473  c-2.739,1-5.63,0.384-8.387-0.133c-2.969,1.043-6.175,0.692-9.148-0.097c-2.629-1.161-9.912,0.249-14.842-0.925  c-2.709-0.138-6.258-4.419-7.258-4.905c-1.309-0.714-2.449-1.649-3.356-2.815c-1.144-0.294-2.349-0.147-3.486-0.075  c-1.313,1.377-3.059,2.273-4.335,3.64c-0.101,5.002,0,10.012-0.047,15.014c4.12,4.809,8.054,9.771,12.203,14.555  c0.01,3.281-0.014,6.562,0.014,9.843c-14.251,7.641-10.184,6.531-31.089,6.605c-3.916-1.901-7.817-3.833-11.711-5.766  c0.157-12.703-2.479-5.59,11.475-24.549c0.086-1.331,0.333-14.11-0.168-15.326c-5.017,0.054-10.033,0.007-15.043,0.029  c-0.208,1.18-0.409,2.359-0.541,3.546c-1.223,0.169-2.7-0.201-3.711,0.527c-3.777,5.932-8.492,10.296-15.545,10.284  c-120.309-0.102-75.19-0.213-137.466,1.843c-0.244,3.059-0.269,6.168-1.104,9.147c-6.334,22.452-1.136,8.203-9.85,28.841  c-0.457,1.124-0.477,0.973-7.394,10.93c-0.587,0.845-8.449,7.293-11.561,8.807c-2.779,1.403-14.141,4.226-17.32,4.217  c-3.114,0.115-5.177-0.287-15.771-3.543c-1.146-0.242-5.542-4.29-8.606-6.842c-1.409-1.642-3.331-2.768-5.286-3.611  c-2.787-0.017,11.108-0.384-328.569,9.922c-135.859,4.037-118.321,5.681-128.222-0.667c-10.457-7.445-12.245-40.017-12.737-52.855  c-4.773,0.011-9.545,0.032-14.311,0.018c-0.024,41.348,1.272,41.348-4.224,47.25c-5.962,6.728-14.304,5.592-16.975,5.637  c-28.962,0.093-39.3-2.631-47.541,10.191c-4.397,6.84-3.384-0.591-3.324,98.155c-0.075,1.115,0.287,2.456-0.592,3.349  c-1.259,1.71-3.611,1.503-5.425,2.148c5.67,50.233,12.063,73.476,17.427,96.362c29.99,105.97,26.567,95.447,28.816,97.811  c2.646,2.517,5.095,5.239,7.756,7.749c1.061,4.726,2.019,9.481,3.12,14.203c-72.452,15.889-144.936,31.641-217.387,47.534  c-3.816-13.571-3.216-10.775-6.641-26.657c1.302-0.294,2.618-0.577,3.937-0.853c-30.044-99.474-38.863-145.13-45.307-187.98  c-23.328,5.281-13.443,4.205-131.715,4.289c-3.429-0.102-15.419,1.718-25.689-9.33c-4.697-4.938-7.616-11.543-8.108-18.338  c-151.991,242.209-143.367,229.733-145.126,230.458c-9.083,6.676-58.222-16.826-145.656-54.168  c-5.905-2.624-25.782-11.435-25.901-18.324c0.876-1.876-8.801,9.15,148.665-164.622c0.014-12.733-0.004-25.463,0.007-38.193  c-14.885-17.692-29.723-35.424-44.554-53.164c-27.364-0.061-54.731-0.007-82.098-0.029c-6.146-0.004-12.03-4.242-13.967-10.08  c-1.122-2.926-0.828-6.11-0.846-9.173c-1.732,0.025-3.46,0.068-5.185-0.057c-0.143,2.75,0.014,5.504-0.068,8.258  c-2.377,0.384-4.791,0.283-7.182,0.391c-0.022,2.026-0.014,4.052,0,6.082c-3.564,0.632-36.43,0.932-43.769,0.237  c-0.007-2.026,0.007-4.048,0-6.074c-2.431-0.122-4.873-0.018-7.286-0.344c-0.021-2.75,0.043-5.501-0.014-8.247  c1.18-0.065,2.395,0.025,3.557-0.258c0.086-0.108,0.262-0.33,0.348-0.438c-84.245-0.275-78.761,2.151-84.579-5.985  c0.025-2.388-0.011-4.78,0.029-7.168c-80.054,0.057-160.1,0.014-240.15,0.036c-1.989-0.237-0.597-0.163-42.277,10.976  c-50.507,16.56-119.153,66.669-234.531,145.836c1.438,1.8,2.697,3.736,4.138,5.54c-18.126,15.964-36.127,32.075-54.218,48.075  c-0.774,0.546,0.864,0.076-29.146,6.243c-11.067,1.792,6.822,0.967-46.967,1.234c-4.289-6.368-8.491-12.791-12.783-19.155  c0.003-7.765,0.055-256.07-0.036-267.955c-5.239-11.675-10.836-23.197-16.122-34.854c0.803-5.185,1.678-10.359,2.424-15.555  c17.346-15.192,4.761-6.917,23.753-16.48c-0.022-1.33-0.029-2.657-0.007-3.984c101.463,0.157,64.139-0.903,110.44,3.683  c-0.061,3.593-0.136,7.186-0.126,10.779c178.524,0.143,357.048,0.247,535.583,0.287c0-4.482,0.025-8.965,0.004-13.443  c4.577-5.801-2.068-3.326,84.371-13.856c0.011-0.954,0.043-1.908,0.115-2.858c-1.294-0.298-2.639-0.441-3.826-1.061  c0.021-2.575,0.029-5.153-0.022-7.724c2.313-0.95,4.87-0.918,7.329-1.144c0-2.015,0.018-4.03,0.007-6.046  c5.759-2.012,40.209-1.37,43.765,0.871c-0.047,1.951-0.018,3.905,0.004,5.859c2.392,0.423,4.977,0.305,7.172,1.47  c-0.036,2.546,0.1,5.099-0.032,7.641c-0.129,0.122-0.384,0.373-0.509,0.495c1.865-0.506,3.833-0.043,5.745-0.201  c-0.298-1.345-0.602-2.689-0.94-4.023c12.622-35.218,13.945-40.624,19.052-44.073c1.012-0.67,0.398-0.287,26.216-0.412  c0.014-5.82,0.014-11.64,0.004-17.459c6.582-6.76,13.808-7.767,15.717-8.333c-0.093-10.779-0.011-21.562-0.029-32.337  C923.361,47.281,929.633,40.468,937.342,38.219 M2189.535,112.134c-6.931,1.424-13.856,2.865-20.787,4.256  c92.721-0.088,76.151,0.515,85.798-1.208C2185.821,110.536,2194.348,111.195,2189.535,112.134 M2523.702,208.335  c-1.533,2.643-2.211,7.955,4.16,10.385C2529.737,216.395,2530.307,210.296,2523.702,208.335 M182.281,232.944  c0.011,3.044-0.007,6.085,0.014,9.13c-2.204-0.021-19.096-0.786-22.279-0.76c0.014,59.123,0.018,118.25,0,177.373  c4.486,3.482,8.8,7.186,13.339,10.589c2.876-0.047,5.709-0.728,8.584-0.843c2.46,1.789,4.751,3.819,7.19,5.655  c75.734-51.76,114.639-78.708,120.358-82.288c-0.742,0.032-1.477,0.075-2.209,0.118c0.039-39.649-0.011-79.297,0.029-118.949  C265.63,232.948,223.959,232.891,182.281,232.944 M556.495,233.063c-0.032,15,0,29.995-0.021,44.995  c10.971,0.043,138.964,0.04,161.441,0.022c-0.014-14.989-0.011-29.978,0.004-44.97C664.113,233.055,610.304,233.052,556.495,233.063   M2354.329,264.306c-0.979,1.269-1.94,2.546-2.933,3.794c-0.025,1.37-0.014,2.74-0.022,4.109c4.474,0.003,29.065-0.726,30.078-0.749  c-0.032-1.409,0.068-2.822-0.068-4.224c-0.778-1.377-2.026-2.413-2.908-3.711C2370.423,263.704,2362.376,264.001,2354.329,264.306   M394.849,302.76c28.571-13.601,18.96-8.937,27.016-11.543c62.726-16.74,43.892-12.516,55.164-13.149  c16.337,0.082,32.678-0.079,49.015,0.072c-23.046-7.509-7.916-5.468-95.143-5.343C418.917,282.823,406.858,292.76,394.849,302.76   M1175.796,375.929c-0.032,22.437,0.014,44.873-0.018,67.306c0.147,7.885,3.991,15.591,10.119,20.54  c9.653,7.746,4.752,6.04,125.239,5.992c2.284-0.287,4.522-0.929,6.759-1.495c-0.267-89.317,1.91-85.077-5.192-92.314  c-74.103-0.223-61.411-1.082-75.299,5.031c-6.729,2.635-17.931,12.254-24.592,26.385c-5.764,13.573-6.8,22.334-2.008,41.183  c0.749,3.292,2.711,6.096,4.059,9.155c1.731,3.947,6.338,8.53,7.1,10.682c-7.3,0.882-23.281-14.503-28.239-20.758  c-0.212-3.199-0.103-70.69-0.1-71.691C1187.68,375.929,1181.738,375.922,1175.796,375.929z"/>
<script xmlns=""/></svg>